<?xml version="1.0" standalone="no"?>
<!DOCTYPE svg PUBLIC "-//W3C//DTD SVG 20010904//EN"
 "http://www.w3.org/TR/2001/REC-SVG-20010904/DTD/svg10.dtd">
<svg version="1.0" xmlns="http://www.w3.org/2000/svg"
 width="512.000000pt" height="512.000000pt" viewBox="0 0 512.000000 512.000000"
 preserveAspectRatio="xMidYMid meet">

<g transform="translate(0.000000,512.000000) scale(0.100000,-0.100000)"
fill="#212F6A" stroke="none">
<path d="M2977 5109 c-387 -45 -736 -220 -1010 -509 -335 -352 -499 -836 -446
-1318 77 -713 614 -1306 1311 -1447 69 -14 137 -25 152 -25 l26 0 0 -155 0
-155 -150 0 -150 0 0 -750 0 -750 450 0 450 0 0 750 0 750 -150 0 -150 0 0
153 0 152 108 17 c516 81 978 421 1217 898 312 621 197 1379 -287 1885 -359
376 -867 563 -1371 504z m438 -314 c486 -102 868 -439 1023 -902 52 -153 66
-249 66 -433 0 -235 -40 -412 -136 -604 -194 -386 -528 -641 -959 -733 -117
-25 -381 -25 -499 0 -554 117 -967 533 -1077 1084 -24 122 -24 384 0 506 115
578 577 1017 1153 1096 97 14 334 6 429 -14z m-105 -4045 l0 -450 -150 0 -150
0 0 450 0 450 150 0 150 0 0 -450z"/>
<path d="M3055 4496 c-84 -21 -147 -57 -211 -121 -137 -136 -170 -334 -87
-512 52 -112 191 -221 303 -239 23 -4 39 -8 38 -10 -2 -2 -39 -10 -83 -19
-149 -31 -268 -95 -379 -203 -155 -151 -226 -331 -226 -572 l0 -110 750 0 750
0 0 110 c0 183 -37 316 -125 450 -110 168 -281 284 -480 325 -44 9 -81 17 -83
19 -1 2 16 6 39 10 110 18 234 112 292 224 95 181 65 384 -78 528 -112 113
-269 158 -420 120z m175 -306 c45 -23 80 -80 80 -130 0 -76 -74 -150 -151
-150 -46 0 -108 39 -130 82 -37 72 -14 151 57 194 48 29 92 30 144 4z m37
-894 c77 -21 136 -52 192 -102 49 -44 103 -119 116 -161 l6 -23 -421 0 -421 0
6 23 c13 41 67 117 114 160 112 100 270 140 408 103z"/>
<path d="M310 1350 l0 -150 150 0 150 0 0 150 0 150 -150 0 -150 0 0 -150z"/>
<path d="M910 1350 l0 -150 600 0 600 0 0 150 0 150 -600 0 -600 0 0 -150z"/>
<path d="M310 750 l0 -150 150 0 150 0 0 150 0 150 -150 0 -150 0 0 -150z"/>
<path d="M910 750 l0 -150 600 0 600 0 0 150 0 150 -600 0 -600 0 0 -150z"/>
<path d="M310 150 l0 -150 150 0 150 0 0 150 0 150 -150 0 -150 0 0 -150z"/>
<path d="M910 150 l0 -150 600 0 600 0 0 150 0 150 -600 0 -600 0 0 -150z"/>
</g>
</svg>
