<svg id="Layer_5" enable-background="new 0 0 64 64" height="512" viewBox="0 0 64 64" width="512" xmlns="http://www.w3.org/2000/svg"><g><circle cx="16" cy="31" r="1"/><circle cx="50" cy="30.983" r="1"/><path d="m63 47.308c0-3.018-1.924-5.687-4.787-6.64l-.009-.003c3.006-2.275 4.796-5.799 4.796-9.601v-5.064c0-3.859-3.14-7-7-7h-4v-13c0-2.757-2.243-5-5-5h-28c-2.757 0-5 2.243-5 5v13.001h-2c-6.065 0-11 4.935-11 11v17.525 4.474 11.001h18v-7.276c.68-.446 1.298-.996 1.821-1.651l9.431-11.788c.482-.603.748-1.361.748-2.133v-.152c0-.913-.355-1.771-1-2.414l-.585-.586c-1.218-1.218-3.305-1.299-4.607-.203-1.294-.528-2.784-.234-3.785.766-.66.66-1.023 1.537-1.023 2.469v1.635l-2.125 2.833c-.107-.132-.219-.259-.339-.379l-1.536-1.536v-1.586h.414l2.586-2.586v-1.693l3-1v-.721c0-2.29-.579-4.367-1.245-6h3.245v1.586c0 1.331 1.083 2.414 2.414 2.414.635 0 1.257-.258 1.707-.707l3.293-3.293h3.172l3.293 3.294c.45.448 1.072.706 1.707.706 1.331 0 2.414-1.083 2.414-2.414v-1.586h3.245c-.665 1.634-1.245 3.704-1.245 5.983v.721l2.999 1c.025 1.103.483 2.176 1.289 2.981.489.489 1.078.832 1.712 1.047v1.601c-3.059 1.499-5 4.583-5 8.034v4.615h-.586l-1.14-1.14c-.555-.555-1.292-.86-2.077-.86-1.121 0-2.127.622-2.627 1.624l-.188.376h-.382c-1.654 0-3 1.346-3 3v2.023c0 1.642 1.333 2.977 2.972 2.977h18.911.004c1.63 0 3.167-.64 4.365-1.838 1.128-1.128 1.749-2.627 1.749-4.223zm-2-21.308v5.064c0 3.171-1.493 6.111-4 8.009v-3.676l1.121-1.121c.567-.566.879-1.32.879-2.121v-.172c0-1.304-.836-2.416-2-2.829v-1.171c0-1.654-1.346-3-3-3h-1.552c.345-.599.552-1.273.552-1.983h-2c0 .593-.261 1.151-.715 1.532-.318.267-.697.415-1.099.451h-.102c-.027 0-.053.01-.08.01-.124 0-.249-.004-.375-.027-.787-.138-1.458-.81-1.596-1.596-.106-.607.048-1.195.435-1.656.381-.453.94-.714 1.532-.714h7c2.757 0 5 2.243 5 5zm-58 4.001c0-4.963 4.038-9 9-9h7c1.103 0 2 .897 2 2 0 1.958-2.88 1.998-3.003 1.999h-6.997c-1.654 0-3 1.346-3 3v1.171c-1.164.413-2 1.525-2 2.829v.172c0 .801.312 1.555.879 2.121l1.121 1.121v4.832l-1.924.549c-1.2.343-2.243 1.005-3.076 1.863zm14 31h-14v-9.001-.329c.053.032.102.07.156.099l7.844 4.279c1.144.623 2.434.952 3.733.952.781 0 1.541-.126 2.267-.345zm5.438-22.023c.455-.455 1.146-.564 1.721-.28l1.039.521.802-.804c.533-.535 1.465-.535 2 0l.586.586c.263.263.414.627.414 1v.152c0 .32-.11.634-.31.884l-2.662 3.327-4.028-2.877v-1.453c0-.399.155-.774.438-1.056zm-1.224 4.404 3.564 2.545-5.518 6.897c-1.106 1.384-2.756 2.177-4.526 2.177-.966 0-1.926-.245-2.776-.708l-7.844-4.278c-.687-.375-1.114-1.094-1.114-1.877 0-1.178.959-2.137 2.187-2.137.362 0 .721.093 1.038.269l7.555 4.197c.406.225.778.506 1.107.835l1.405 1.406 1.415-1.414-1.387-1.388zm-5.092 2.155c.193.193.348.419.482.658l-1.881 2.507-7.527-4.181c-.613-.341-1.308-.521-2.059-.521-.251 0-.494.031-.732.074.598-.625 1.352-1.108 2.22-1.356l2.083-.596 4.292 4.293 2-2zm.878-10.258v2.307l-1.414 1.414h-3.586v2h2v1.586l-1 1.001-3-3.001v-6l-1.707-1.707c-.186-.187-.293-.444-.293-.707v-.172c0-.552.449-1 1-1h1v-3c0-.552.449-1 1-1h6.473c.659 1.017 2.298 3.859 2.505 7.286zm23-8.279v3.586c0 .338-.468.532-.707.293l-3.879-3.879h-4.828l-3.878 3.878c-.241.241-.708.046-.708-.292v-3.586h-6.2c-.044-.08-.087-.156-.129-.231.221-.056.449-.121.68-.208 1.708-.639 2.649-1.904 2.649-3.56 0-2.206-1.794-4-4-4h-3v-13.001c0-1.654 1.346-3 3-3h28c1.654 0 3 1.346 3 3v13h-1c-1.185 0-2.302.521-3.064 1.429s-1.08 2.106-.873 3.288c.18 1.023.779 1.926 1.603 2.525-.047.066-.109.12-.151.191-.1.168-.21.364-.322.567zm8.998 9.6.004-1.336-2.981-.994c.18-2.979 1.439-5.515 2.212-6.813.168-.283.48-.458.819-.469.063-.001.125 0 .188-.004h4.76c.551 0 1 .448 1 1v3h1c.551 0 1 .448 1 1v.172c0 .263-.107.521-.293.707l-1.707 1.706v6.081l-2.108 2.81-.892-.891v-1.585l1-.001v-2l-1.581.001c-.001 0-.002 0-.003 0-.646 0-1.254-.253-1.74-.738-.432-.433-.68-1.033-.678-1.646zm-1.998 13.768c0-2.643 1.477-4.993 3.796-6.175l2.312 2.312 3.259-4.346 1.214.405c.499.167.957.405 1.366.703-2.462 1.94-3.947 4.945-3.947 8.117v3.6h-8zm-10 9.639v-2.023c0-.552.449-1 1-1h1.618l.741-1.482c.271-.544 1.071-.673 1.501-.243l1.14 1.14v4.586h-5.028c-.536-.002-.972-.44-.972-.978zm22.8-.238c-.783.783-1.817 1.215-2.914 1.215-.001 0-.002 0-.003 0h-11.883v-4h12v-5.6c0-2.607 1.245-5.073 3.298-6.633.45.755.702 1.633.702 2.557v9.615c.001 1.06-.412 2.058-1.2 2.846z"/><path d="m31.5 5c-2.481 0-4.5 2.019-4.5 4.5v.5h2v-.5c0-1.379 1.122-2.5 2.5-2.5s2.5 1.121 2.5 2.55c0 .668-.26 1.297-.732 1.769l-2.268 2.267v3.414h2v-2.586l1.682-1.682c.85-.849 1.318-1.98 1.318-3.232 0-2.481-2.019-4.5-4.5-4.5z"/><path d="m32 19c-1.654 0-3 1.346-3 3s1.346 3 3 3 3-1.346 3-3-1.346-3-3-3zm0 4c-.551 0-1-.448-1-1s.449-1 1-1 1 .448 1 1-.449 1-1 1z"/><path d="m18 15h2v2h-2z"/><path d="m18 7v6h2v-6h2v-2h-2c-1.103 0-2 .897-2 2z"/><path d="m46 7h2v2h-2z"/><path d="m46 11h2v2h-2z"/><path d="m46 15h2v2h-2z"/></g></svg>