<?xml version="1.0" standalone="no"?>
<!DOCTYPE svg PUBLIC "-//W3C//DTD SVG 20010904//EN"
 "http://www.w3.org/TR/2001/REC-SVG-20010904/DTD/svg10.dtd">
<svg version="1.0" xmlns="http://www.w3.org/2000/svg"
 width="512.000000pt" height="512.000000pt" viewBox="0 0 512.000000 512.000000"
 preserveAspectRatio="xMidYMid meet">

<g transform="translate(0.000000,512.000000) scale(0.100000,-0.100000)"
fill="#212F6A" stroke="none">
<path d="M233 5102 c-106 -37 -201 -141 -223 -245 -8 -38 -10 -680 -8 -2327
l3 -2275 27 -56 c35 -70 97 -132 168 -167 l55 -27 1765 0 1765 0 57 28 c72 35
130 93 165 165 l28 57 3 1005 2 1005 504 505 c276 278 512 521 524 540 86 146
59 334 -64 450 -80 76 -129 95 -244 95 -158 0 -155 2 -457 -298 l-263 -261 -2
785 -3 784 -28 57 c-35 72 -93 130 -165 165 l-57 28 -1750 2 c-1659 2 -1753 2
-1802 -15z m937 -282 l0 -100 -345 0 c-375 0 -389 -2 -413 -55 -17 -38 -17
-4172 0 -4210 25 -56 18 -55 648 -55 630 0 623 -1 648 55 15 33 15 57 0 90
-25 55 -23 55 -588 55 l-520 0 0 1960 0 1960 284 0 283 0 6 -49 c12 -104 94
-209 193 -247 46 -18 83 -19 654 -19 571 0 608 1 654 19 99 38 181 143 193
247 l6 49 283 0 284 0 0 -912 0 -912 -65 -66 c-64 -64 -66 -68 -220 -413 -102
-230 -155 -359 -155 -382 0 -45 34 -84 80 -91 29 -5 64 8 194 65 87 39 160 71
162 71 2 0 4 -288 4 -640 l0 -640 -520 0 c-565 0 -563 0 -588 -55 -15 -33 -15
-57 0 -90 25 -56 18 -55 648 -55 630 0 623 -1 648 55 9 19 12 215 12 771 l0
745 96 44 c53 25 98 45 100 45 3 0 3 -398 2 -884 -3 -877 -3 -885 -24 -913
-11 -15 -36 -36 -55 -45 -32 -17 -136 -18 -1739 -18 -1603 0 -1707 1 -1740 18
-19 9 -45 32 -57 51 l-23 34 0 2256 c0 2233 0 2256 20 2289 11 18 34 41 52 52
32 19 52 20 466 20 l432 0 0 -100z m1500 -114 c0 -118 -4 -226 -10 -240 -5
-14 -24 -35 -42 -46 -32 -19 -51 -20 -598 -20 -547 0 -566 1 -598 20 -18 11
-37 32 -42 46 -6 14 -10 122 -10 240 l0 214 650 0 650 0 0 -214z m1101 191
c73 -48 69 7 69 -947 l0 -855 -100 -100 -100 -100 0 872 c0 655 -3 879 -12
898 -24 53 -38 55 -413 55 l-345 0 0 100 0 100 434 0 433 0 34 -23z m1058
-1252 c41 -20 79 -70 87 -110 11 -62 -4 -104 -56 -159 l-49 -51 -115 115 -116
114 33 34 c17 19 46 43 62 53 36 23 114 25 154 4z m-271 -348 l112 -112 -450
-450 -450 -450 -115 115 -115 115 447 447 c247 247 450 448 453 448 3 0 56
-51 118 -113z m-1043 -1047 l79 -79 -45 -20 c-24 -11 -89 -40 -144 -64 -55
-25 -101 -44 -103 -42 -4 4 121 285 128 285 3 0 41 -36 85 -80z"/>
<path d="M931 3906 c-49 -27 -50 -37 -51 -404 0 -372 2 -386 55 -410 41 -19
697 -17 734 2 49 26 51 41 51 406 0 365 -2 380 -51 406 -39 20 -702 20 -738 0z
m589 -406 l0 -220 -220 0 -220 0 0 220 0 220 220 0 220 0 0 -220z"/>
<path d="M2835 3823 c-11 -3 -111 -95 -222 -206 l-202 -201 -88 85 c-48 47
-100 89 -115 93 -42 10 -96 -17 -112 -56 -26 -61 -13 -83 128 -224 134 -134
154 -147 211 -132 40 10 511 481 520 521 17 67 -52 135 -120 120z"/>
<path d="M931 2806 c-49 -27 -50 -37 -51 -404 0 -372 2 -386 55 -410 41 -19
697 -17 734 2 49 26 51 41 51 406 0 365 -2 380 -51 406 -39 20 -702 20 -738 0z
m589 -406 l0 -220 -220 0 -220 0 0 220 0 220 220 0 220 0 0 -220z"/>
<path d="M2835 2723 c-11 -3 -111 -95 -222 -206 l-202 -201 -88 85 c-48 47
-100 89 -115 93 -42 10 -96 -17 -112 -56 -26 -61 -13 -83 128 -224 134 -134
154 -147 211 -132 40 10 511 481 520 521 17 67 -52 135 -120 120z"/>
<path d="M931 1706 c-49 -27 -50 -37 -51 -404 0 -372 2 -386 55 -410 41 -19
697 -17 734 2 49 26 51 41 51 406 0 365 -2 380 -51 406 -39 20 -702 20 -738 0z
m589 -406 l0 -220 -220 0 -220 0 0 220 0 220 220 0 220 0 0 -220z"/>
<path d="M2265 1619 c-42 -12 -65 -46 -65 -97 0 -40 5 -48 86 -132 l87 -90
-87 -90 c-81 -85 -86 -92 -86 -133 0 -34 6 -50 26 -70 55 -56 105 -40 211 65
l82 82 89 -86 c93 -89 118 -102 173 -84 42 14 73 70 63 113 -4 16 -44 66 -92
116 l-86 87 86 88 c48 49 88 99 92 115 10 43 -21 99 -63 113 -55 18 -80 5
-173 -84 l-89 -86 -82 82 c-86 86 -122 104 -172 91z"/>
<path d="M1971 586 c-87 -48 -50 -186 49 -186 51 0 100 49 100 99 0 75 -83
124 -149 87z"/>
</g>
</svg>
