<svg id="Layer_1" enable-background="new 0 0 512.021 512.021" height="512" viewBox="0 0 512.021 512.021" width="512" xmlns="http://www.w3.org/2000/svg"><g><path d="m504.51 285.358h-56.49v-277.837c0-4.142-3.357-7.5-7.5-7.5h-213.165c-4.143 0-7.5 3.358-7.5 7.5v55.552c0 4.142 3.357 7.5 7.5 7.5s7.5-3.358 7.5-7.5v-48.052h198.165v134.1h-198.165v-46.129c0-4.142-3.357-7.5-7.5-7.5s-7.5 3.358-7.5 7.5v53.629c0 4.142 3.357 7.5 7.5 7.5h168.811v121.237h-56.983c-4.143 0-7.5 3.358-7.5 7.5v73.032h-158.244c-4.143 0-7.5 3.358-7.5 7.5v58.497h-158.428c-4.143 0-7.5 3.358-7.5 7.5v65.135c0 4.142 3.357 7.5 7.5 7.5h431.522c9.697 0 9.697-15 0-15h-92.351v-196.664h150.328v196.663h-18.166c-9.697 0-9.697 15 0 15h25.666c4.143 0 7.5-3.358 7.5-7.5v-211.663c0-4.142-3.357-7.5-7.5-7.5zm-339.171 211.663h-150.328v-50.135h150.328zm165.928 0h-150.328v-116.131h150.328zm79.899-332.901h21.854v121.237h-21.854z"/><path d="m382.916 70.421c-.881-2.721-3.233-4.704-6.063-5.113l-25.017-3.614-11.18-22.521c-2.706-5.452-10.729-5.452-13.436 0l-11.18 22.521-25.017 3.614c-6.052.874-8.539 8.553-4.147 12.809l18.076 17.518-4.266 24.725c-1.038 6.013 5.488 10.731 10.865 7.922l22.386-11.701 22.385 11.701c5.404 2.822 11.903-1.911 10.865-7.922l-4.265-24.725 18.078-17.518c2.053-1.991 2.797-4.976 1.916-7.696zm-33.277 17.199c-4.624 4.484-.695 15.22.188 20.341-13.683-7.152-18.189-7.104-31.78 0 2.608-15.112 1.171-19.39-9.768-29.99 15.241-2.202 18.857-4.895 25.658-18.596 6.847 13.793 10.519 16.409 25.658 18.596z"/><path d="m64.681 18.258c.133 12.812 8.856 21.601 21.735 21.738 5.045.053 6.848 1.854 6.9 6.9.043 4.04.108 10.145 5.852 15.889 6.858 6.856 17.465-3.749 10.607-10.606-1.303-1.303-1.424-2.076-1.459-5.441-.136-12.812-8.861-21.603-21.74-21.74-5.042-.053-6.844-1.85-6.896-6.893-.042-4.04-.104-10.144-5.847-15.886-6.856-6.857-17.463 3.748-10.606 10.605 1.3 1.3 1.42 2.072 1.454 5.434z"/><path d="m129.151 180.438c4.124 0 6.462-3.607 10.737-3.651 12.812-.132 21.601-8.857 21.738-21.735.053-5.045 1.855-6.846 6.899-6.9 4.04-.043 10.145-.108 15.888-5.851 6.858-6.857-3.749-17.464-10.605-10.607-1.304 1.303-2.076 1.423-5.441 1.459-12.811.136-21.603 8.862-21.74 21.74-.053 5.043-1.849 6.844-6.893 6.895-4.039.042-10.144.104-15.887 5.847-4.452 4.452-.992 12.803 5.304 12.803z"/><path d="m38.248 385.661c3.536 2.929 7.072 2.929 10.607 0 1.299-1.299 2.071-1.419 5.433-1.454 12.812-.132 21.601-8.857 21.738-21.735.053-5.046 1.855-6.846 6.9-6.9 4.039-.043 10.145-.108 15.888-5.851 6.858-6.857-3.749-17.464-10.605-10.607-1.303 1.303-2.076 1.423-5.441 1.459-12.812.136-21.604 8.861-21.741 21.74-.053 5.042-1.849 6.844-6.892 6.896-4.04.042-10.144.104-15.887 5.847-2.929 2.928-2.929 7.677 0 10.605z"/><path d="m193.893 280.719c1.089 1.004 1.18 1.329 1.214 4.341.04 3.639.108 9.728 6.044 15.201 5.682 5.239 11.658 5.298 15.612 5.337 4.503.044 6.754 1.032 6.81 5.713.041 3.639.111 9.729 6.049 15.204 7.066 6.518 17.336-4.418 10.168-11.027-1.081-.998-1.184-1.363-1.219-4.349-.142-12.572-9.374-20.42-21.66-20.54-4.5-.044-6.753-1.027-6.805-5.706-.041-3.639-.108-9.729-6.045-15.202-7.128-6.574-17.296 4.454-10.168 11.028z"/><path d="m3.728 191.685c.133 12.984 8.924 21.934 21.998 22.073 5.21.056 7.109 2.035 7.163 7.235.044 4.102.109 10.3 5.906 16.126 6.845 6.876 17.471-3.71 10.633-10.581-1.432-1.438-1.505-2.442-1.539-5.703-.139-12.984-8.927-21.937-22.003-22.076-5.209-.056-7.105-2.029-7.159-7.227-.041-4.102-.104-10.299-5.9-16.124-2.922-2.936-7.671-2.949-10.606-.025-2.937 2.922-2.948 7.67-.026 10.606 1.427 1.435 1.5 2.438 1.533 5.696z"/><path d="m314.261 253.441c1.303-1.303 2.075-1.423 5.441-1.459 12.812-.136 21.603-8.861 21.74-21.74.053-5.042 1.85-6.843 6.892-6.895 4.04-.042 10.144-.104 15.887-5.847 6.857-6.857-3.749-17.462-10.607-10.606-1.299 1.299-2.071 1.419-5.433 1.454-12.812.132-21.601 8.857-21.738 21.735-.053 5.046-1.855 6.846-6.9 6.9-4.039.043-10.145.107-15.889 5.852-6.857 6.857 3.749 17.462 10.607 10.606z"/><path d="m7.255 322.983c9.652 0 9.668-15 0-15-9.651 0-9.667 15 0 15z"/><path d="m173.177 48.421c9.652 0 9.668-15 0-15-9.652 0-9.668 15 0 15z"/><path d="m7.255 76.803c9.652 0 9.668-15 0-15-9.651 0-9.667 15 0 15z"/><path d="m79.191 120.05c-9.652 0-9.668 15 0 15 9.652 0 9.668-15 0-15z"/><path d="m120.334 273.257c9.652 0 9.668-15 0-15-9.651 0-9.667 15 0 15z"/><path d="m129.151 397.521c-9.652 0-9.668 15 0 15 9.652 0 9.668-15 0-15z"/><path d="m249.011 225.873c9.652 0 9.668-15 0-15-9.652 0-9.668 15 0 15z"/><path d="m287.01 307.983c-9.652 0-9.668 15 0 15 9.652 0 9.668-15 0-15z"/></g></svg>