<svg id="Capa_1" enable-background="new 0 0 511.997 511.997" height="512" viewBox="0 0 511.997 511.997" width="512" xmlns="http://www.w3.org/2000/svg"><g><path d="m126.998 381.997c-5.523 0-10 4.477-10 10v56c0 5.523 4.477 10 10 10h44c5.523 0 10-4.477 10-10v-56c0-5.523-4.477-10-10-10zm34 56h-24v-36h24z"/><path d="m340.998 381.997c-5.522 0-10 4.477-10 10v56c0 5.523 4.478 10 10 10h44c5.522 0 10-4.477 10-10v-56c0-5.523-4.478-10-10-10zm34 56h-24v-36h24z"/><path d="m223.098 292.043c0 18.141 14.759 32.9 32.9 32.9 18.142 0 32.9-14.759 32.9-32.9s-14.759-32.9-32.9-32.9c-18.141-.001-32.9 14.759-32.9 32.9zm45.8 0c0 7.113-5.787 12.9-12.9 12.9s-12.9-5.787-12.9-12.9 5.787-12.9 12.9-12.9c7.113-.001 12.9 5.787 12.9 12.9z"/><path d="m469.676 491.997h-33.678v-32.4c0-5.523-4.478-10-10-10s-10 4.477-10 10v32.4h-106v-134c0-5.523-4.478-10-10-10h-88c-5.523 0-10 4.477-10 10v134h-106v-172.168l160-104.349 160 104.349v49.768c0 5.523 4.478 10 10 10s10-4.477 10-10v-36.725l6.364 4.151c2.223 1.449 4.93 1.955 7.523 1.41 2.595-.546 4.867-2.102 6.315-4.323l21.851-33.504c3.017-4.626 1.713-10.822-2.913-13.839l-74.141-48.353v-78.034l6.596 4.302c2.223 1.45 4.929 1.955 7.523 1.41 2.595-.546 4.867-2.102 6.315-4.323l21.851-33.504c3.017-4.626 1.713-10.822-2.913-13.839l-167.982-109.556c-9.957-6.493-22.821-6.493-32.776 0l-167.985 109.555c-2.221 1.449-3.776 3.721-4.323 6.316s-.039 5.301 1.41 7.523l21.851 33.504c1.917 2.94 5.119 4.538 8.385 4.538 1.873 0 3.768-.525 5.454-1.625l6.595-4.301v78.034l-74.141 48.353c-2.221 1.449-3.776 3.721-4.323 6.316-.546 2.595-.039 5.301 1.41 7.523l21.851 33.504c1.917 2.94 5.119 4.538 8.385 4.538 1.873 0 3.768-.525 5.454-1.625l6.364-4.15v159.125h-33.678c-5.523 0-10 4.477-10 10s4.477 10 10 10h427.355c5.522 0 10-4.477 10-10s-4.477-10.001-9.999-10.001zm-367.822-349.531-10.926-16.752 159.609-104.093c3.317-2.164 7.606-2.164 10.924 0l159.607 104.093-10.925 16.752-148.682-96.967c-3.319-2.165-7.604-2.166-10.925 0zm175.062-34.333h-41.835c-10.474 0-18.995 8.523-18.995 19v42.745l-85.087 55.492v-78.034l125-81.522 124.999 81.522v78.034l-85.088-55.492.001-42.745c0-10.477-8.521-19-18.995-19zm-1.005 20-.001 28.701-3.524-2.298c-9.956-6.493-22.821-6.494-32.777 0l-3.524 2.298v-28.702h39.826zm-208.827 186.675-10.925-16.752 194.377-126.769c3.318-2.164 7.605-2.164 10.925 0l194.376 126.768-10.925 16.752-183.451-119.642c-3.32-2.165-7.605-2.165-10.926 0zm222.914 177.189h-68v-52h3.335c5.523 0 10-4.477 10-10s-4.477-10-10-10h-3.335v-52h68z"/><circle cx="425.998" cy="414.6" r="10"/></g></svg>