<?xml version="1.0" standalone="no"?>
<!DOCTYPE svg PUBLIC "-//W3C//DTD SVG 20010904//EN"
 "http://www.w3.org/TR/2001/REC-SVG-20010904/DTD/svg10.dtd">
<svg version="1.0" xmlns="http://www.w3.org/2000/svg"
 width="512.000000pt" height="512.000000pt" viewBox="0 0 512.000000 512.000000"
 preserveAspectRatio="xMidYMid meet">

<g transform="translate(0.000000,512.000000) scale(0.100000,-0.100000)"
fill="#212F6A" stroke="none">
<path d="M1972 3595 c-320 -641 -582 -1167 -582 -1170 0 -3 527 -5 1170 -5
644 0 1170 2 1170 5 0 10 -1165 2335 -1170 2335 -3 0 -267 -524 -588 -1165z
m738 15 l0 -290 -150 0 -150 0 0 290 0 290 150 0 150 0 0 -290z m0 -630 l0
-150 -150 0 -150 0 0 150 0 150 150 0 150 0 0 -150z"/>
<path d="M320 2535 l0 -1335 2240 0 2240 0 0 1335 0 1335 -725 0 c-399 0 -725
-2 -725 -5 0 -3 178 -361 396 -796 l395 -791 -47 -79 -48 -79 -1486 0 -1486 0
-48 79 -47 79 395 791 c218 435 396 793 396 796 0 3 -326 5 -725 5 l-725 0 0
-1335z"/>
<path d="M0 785 l0 -115 41 -38 c161 -145 366 -240 585 -272 57 -8 612 -10
1984 -8 l1905 3 97 27 c179 49 348 139 466 247 l42 39 0 116 0 116 -2560 0
-2560 0 0 -115z"/>
</g>
</svg>
