<svg height="512" viewBox="0 0 512 512" width="512" xmlns="http://www.w3.org/2000/svg" xmlns:xlink="http://www.w3.org/1999/xlink"><linearGradient id="a" gradientUnits="userSpaceOnUse" x1="46.784" x2="515.251" y1="465.216" y2="-3.251" data-name="New Gradient Swatch 1"><stop offset="0" stop-color="#003f8a"/><stop offset=".518" stop-color="#00d7df"/><stop offset="1" stop-color="#006df0"/></linearGradient><linearGradient id="b" x1="108.784" x2="577.251" xlink:href="#a" y1="527.216" y2="58.749"/><linearGradient id="c" x1="136.784" x2="605.251" xlink:href="#a" y1="555.216" y2="86.749"/><linearGradient id="d" x1="49.131" x2="517.598" xlink:href="#a" y1="467.563" y2="-.903"/><linearGradient id="f" x1="131.314" x2="599.78" xlink:href="#a" y1="549.745" y2="81.279"/><linearGradient id="g" x1="143.949" x2="612.416" xlink:href="#a" y1="562.381" y2="93.914"/><linearGradient id="h" x1="156.179" x2="624.646" xlink:href="#a" y1="574.611" y2="106.144"/><linearGradient id="i" x1="-37.716" x2="430.75" xlink:href="#a" y1="380.715" y2="-87.751"/><linearGradient id="j" x1="-50.351" x2="418.116" xlink:href="#a" y1="368.081" y2="-100.386"/><linearGradient id="k" x1="-62.581" x2="405.886" xlink:href="#a" y1="355.851" y2="-112.616"/><g><path d="m376 8h-240a32.042 32.042 0 0 0 -32 32v432a32.042 32.042 0 0 0 32 32h240a32.042 32.042 0 0 0 32-32v-432a32.042 32.042 0 0 0 -32-32zm-66.25 16-4 16h-99.69l-4.5-16zm82.25 448a16.021 16.021 0 0 1 -16 16h-240a16.021 16.021 0 0 1 -16-16v-432a16.021 16.021 0 0 1 16-16h48.94l7.36 26.17a8 8 0 0 0 7.7 5.83h112a8 8 0 0 0 7.76-6.06l6.49-25.94h49.75a16.021 16.021 0 0 1 16 16z" fill="url(#a)"/><path d="m200 456h-56a8 8 0 0 0 0 16h56a8 8 0 0 0 0-16z" fill="url(#b)"/><path d="m232 456h-8a8 8 0 0 0 0 16h8a8 8 0 0 0 0-16z" fill="url(#c)"/><path d="m303.59 269.47a8 8 0 0 0 -7.59-5.47v-32a32.012 32.012 0 0 0 -16-27.695v-4.305a24 24 0 0 0 -48 0v4.305a32.012 32.012 0 0 0 -16 27.695v32a8 8 0 0 0 -7.59 5.47l-8 24a8 8 0 0 0 7.59 10.53h24a24 24 0 0 0 48 0h24a8 8 0 0 0 7.59-10.53zm-47.59-77.47a8.009 8.009 0 0 1 8 8h-16a8.009 8.009 0 0 1 8-8zm-24 40a16.019 16.019 0 0 1 16-16h16a16.019 16.019 0 0 1 16 16v32h-48zm24 80a8.009 8.009 0 0 1 -8-8h16a8.009 8.009 0 0 1 -8 8zm16-24h-52.9l2.666-8h68.468l2.666 8z" fill="url(#d)"/><path d="m256 128a128 128 0 1 0 128 128 128.144 128.144 0 0 0 -128-128zm0 240a112 112 0 1 1 112-112 112.123 112.123 0 0 1 -112 112z" fill="url(#a)"/><path d="m422.829 199.258a8 8 0 0 0 -5.452 9.913 168.868 168.868 0 0 1 0 93.658 8 8 0 1 0 15.365 4.461 184.854 184.854 0 0 0 0-102.58 8 8 0 0 0 -9.913-5.452z" fill="url(#f)"/><path d="m457.8 178.812a8 8 0 1 0 -14.944 5.716 200.919 200.919 0 0 1 0 142.944 8 8 0 1 0 14.944 5.716 216.917 216.917 0 0 0 0-154.376z" fill="url(#g)"/><path d="m482.079 153.913a8 8 0 0 0 -14.578 6.594 232.673 232.673 0 0 1 0 190.986 8 8 0 1 0 14.578 6.594 248.672 248.672 0 0 0 0-204.174z" fill="url(#h)"/><path d="m89.23 199.258a8 8 0 0 0 -9.913 5.452 184.879 184.879 0 0 0 0 102.58 8 8 0 0 0 15.366-4.461 168.868 168.868 0 0 1 0-93.658 8 8 0 0 0 -5.453-9.913z" fill="url(#i)"/><path d="m64.588 174.2a8 8 0 0 0 -10.33 4.614 216.917 216.917 0 0 0 0 154.376 8 8 0 1 0 14.942-5.718 200.919 200.919 0 0 1 0-142.944 8 8 0 0 0 -4.612-10.328z" fill="url(#j)"/><path d="m24.06 256a230.123 230.123 0 0 1 20.5-95.493 8 8 0 0 0 -14.578-6.594 248.672 248.672 0 0 0 0 204.174 8 8 0 1 0 14.578-6.594 230.123 230.123 0 0 1 -20.5-95.493z" fill="url(#k)"/></g></svg>