<?xml version="1.0" standalone="no"?>
<!DOCTYPE svg PUBLIC "-//W3C//DTD SVG 20010904//EN"
 "http://www.w3.org/TR/2001/REC-SVG-20010904/DTD/svg10.dtd">
<svg version="1.0" xmlns="http://www.w3.org/2000/svg"
 width="512.000000pt" height="512.000000pt" viewBox="0 0 512.000000 512.000000"
 preserveAspectRatio="xMidYMid meet">

<g transform="translate(0.000000,512.000000) scale(0.100000,-0.100000)"
fill="#212F6A" stroke="none">
<path d="M2493 5099 c-30 -15 -48 -33 -62 -63 -19 -39 -21 -61 -21 -284 l0
-242 -42 0 c-151 0 -452 -74 -661 -161 -459 -192 -836 -520 -1087 -944 -519
-879 -370 -2016 361 -2744 477 -474 1134 -714 1785 -650 985 95 1805 840 1998
1814 100 504 33 993 -201 1455 -46 91 -92 175 -102 187 -49 58 -124 78 -183
47 -68 -35 -544 -401 -556 -428 -25 -55 -15 -110 37 -214 181 -361 198 -730
52 -1109 -133 -343 -441 -648 -786 -776 -346 -129 -729 -109 -1056 54 -95 47
-241 150 -323 229 -326 311 -483 753 -421 1185 43 300 168 550 384 765 202
201 431 323 700 374 46 9 87 16 92 16 5 0 9 -105 9 -236 0 -226 1 -238 22
-276 24 -43 80 -78 123 -78 14 0 41 6 59 14 18 8 310 222 649 475 642 483 647
487 647 560 0 75 -3 78 -648 562 -338 254 -629 467 -648 475 -46 19 -72 18
-121 -7z"/>
</g>
</svg>
