<svg height="512pt" viewBox="0 -22 512 512" width="512pt" xmlns="http://www.w3.org/2000/svg"><path d="m101.265625 277.226562c-11.726563 0-21.265625-10.53125-21.265625-23.484374 0-4.421876 3.578125-8 8-8s8 3.578124 8 8c0 3.984374 2.460938 7.484374 5.265625 7.484374s5.257813-3.5 5.257813-7.484374c0-6.75-2.171876-9.039063-9.148438-12.914063-8.40625-4.671875-17.375-10.984375-17.375-26.898437 0-12.953126 9.539062-23.484376 21.265625-23.484376 11.71875 0 21.257813 10.53125 21.257813 23.484376 0 4.421874-3.578126 8-8 8-4.421876 0-8-3.578126-8-8 0-3.984376-2.453126-7.484376-5.257813-7.484376s-5.265625 3.5-5.265625 7.484376c0 6.75 2.171875 9.039062 9.148438 12.914062 8.40625 4.671875 17.375 10.992188 17.375 26.898438 0 12.953124-9.539063 23.484374-21.257813 23.484374zm0 0" fill="#ffd064"/><path d="m154.3125 277.226562c-11.71875 0-21.257812-9.539062-21.257812-21.257812v-57.476562c0-4.421876 3.578124-8 8-8 4.421874 0 8 3.578124 8 8v57.476562c0 2.898438 2.359374 5.257812 5.257812 5.257812 2.90625 0 5.265625-2.359374 5.265625-5.257812v-57.476562c0-4.421876 3.578125-8 8-8s8 3.578124 8 8v57.476562c0 11.71875-9.539063 21.257812-21.265625 21.257812zm0 0" fill="#ffc250"/><path d="m207.367188 277.226562c-11.726563 0-21.265626-9.539062-21.265626-21.257812v-44.210938c0-11.726562 9.539063-21.265624 21.265626-21.265624 11.726562 0 21.265624 9.539062 21.265624 21.265624 0 4.421876-3.578124 8-8 8-4.421874 0-8-3.578124-8-8 0-2.90625-2.359374-5.265624-5.265624-5.265624s-5.265626 2.359374-5.265626 5.265624v44.210938c0 2.898438 2.359376 5.257812 5.265626 5.257812s5.265624-2.359374 5.265624-5.257812c0-4.421875 3.578126-8 8-8 4.421876 0 8 3.578125 8 8 0 11.71875-9.539062 21.257812-21.265624 21.257812zm0 0" fill="#ffa95f"/><path d="m259.085938 277.226562c-11.71875 0-21.257813-9.539062-21.257813-21.257812v-44.210938c0-11.726562 9.539063-21.265624 21.257813-21.265624 11.726562 0 21.265624 9.539062 21.265624 21.265624 0 4.421876-3.578124 8-8 8-4.421874 0-8-3.578124-8-8 0-2.90625-2.359374-5.265624-5.265624-5.265624-2.898438 0-5.257813 2.359374-5.257813 5.265624v44.210938c0 2.898438 2.359375 5.257812 5.257813 5.257812 2.90625 0 5.265624-2.359374 5.265624-5.257812 0-4.421875 3.578126-8 8-8 4.421876 0 8 3.578125 8 8 0 11.71875-9.539062 21.257812-21.265624 21.257812zm0 0" fill="#ff8b5a"/><path d="m323.59375 261.226562h-18.523438v-19.367187h9.6875c4.421876 0 8-3.578125 8-8s-3.578124-8-8-8h-9.6875v-19.367187h18.523438c4.421875 0 8-3.578126 8-8 0-4.421876-3.578125-8-8-8h-26.523438c-4.421874 0-8 3.578124-8 8v70.734374c0 4.421876 3.578126 8 8 8h26.523438c4.421875 0 8-3.578124 8-8 0-4.421874-3.578125-8-8-8zm0 0" fill="#ffa95f"/><path d="m360.015625 277.226562c-11.71875 0-21.257813-10.53125-21.257813-23.484374 0-4.421876 3.578126-8 8-8 4.421876 0 8 3.578124 8 8 0 3.984374 2.453126 7.484374 5.257813 7.484374s5.265625-3.5 5.265625-7.484374c0-6.75-2.171875-9.039063-9.148438-12.914063-8.40625-4.671875-17.375-10.992187-17.375-26.898437 0-12.953126 9.539063-23.484376 21.257813-23.484376 11.726563 0 21.265625 10.53125 21.265625 23.484376 0 4.421874-3.578125 8-8 8s-8-3.578126-8-8c0-3.984376-2.460938-7.484376-5.265625-7.484376s-5.257813 3.5-5.257813 7.484376c0 6.75 2.171876 9.039062 9.148438 12.914062 8.40625 4.671875 17.375 10.984375 17.375 26.898438 0 12.953124-9.539062 23.484374-21.265625 23.484374zm0 0" fill="#ffc250"/><path d="m410.734375 277.226562c-11.71875 0-21.257813-10.53125-21.257813-23.484374 0-4.421876 3.578126-8 8-8 4.421876 0 8 3.578124 8 8 0 3.984374 2.453126 7.484374 5.257813 7.484374s5.265625-3.5 5.265625-7.484374c0-6.75-2.171875-9.039063-9.148438-12.914063-8.40625-4.671875-17.375-10.992187-17.375-26.898437 0-12.953126 9.539063-23.484376 21.257813-23.484376 11.726563 0 21.265625 10.53125 21.265625 23.484376 0 4.421874-3.578125 8-8 8s-8-3.578126-8-8c0-3.984376-2.460938-7.484376-5.265625-7.484376s-5.257813 3.5-5.257813 7.484376c0 6.75 2.171876 9.039062 9.148438 12.914062 8.40625 4.671875 17.375 10.984375 17.375 26.898438 0 12.953124-9.539062 23.484374-21.265625 23.484374zm0 0" fill="#ffd064"/><path d="m48 241.8125h-40c-4.421875 0-8-3.578125-8-8s3.578125-8 8-8h40c4.421875 0 8 3.578125 8 8s-3.578125 8-8 8zm0 0" fill="#ffe07d"/><path d="m56 209.8125c-.835938 0-1.6875-.132812-2.53125-.414062l-24-8c-4.1875-1.390626-6.453125-5.921876-5.054688-10.117188 1.398438-4.1875 5.882813-6.46875 10.117188-5.054688l24 8c4.1875 1.390626 6.453125 5.921876 5.054688 10.117188-1.117188 3.351562-4.234376 5.46875-7.585938 5.46875zm0 0" fill="#ffeaa8"/><path d="m32 281.8125c-3.351562 0-6.46875-2.117188-7.585938-5.46875-1.398437-4.195312.867188-8.726562 5.054688-10.117188l24-8c4.226562-1.40625 8.71875.867188 10.117188 5.054688 1.398437 4.195312-.867188 8.726562-5.054688 10.117188l-24 8c-.84375.28125-1.695312.414062-2.53125.414062zm0 0" fill="#ffeaa8"/><path d="m504 241.8125h-40c-4.421875 0-8-3.578125-8-8s3.578125-8 8-8h40c4.421875 0 8 3.578125 8 8s-3.578125 8-8 8zm0 0" fill="#ffe07d"/><g fill="#ffeaa8"><path d="m456 209.8125c-3.351562 0-6.46875-2.117188-7.585938-5.46875-1.398437-4.195312.867188-8.726562 5.054688-10.117188l24-8c4.21875-1.414062 8.726562.867188 10.117188 5.054688 1.398437 4.195312-.867188 8.726562-5.054688 10.117188l-24 8c-.84375.28125-1.695312.414062-2.53125.414062zm0 0"/><path d="m480 281.8125c-.835938 0-1.6875-.132812-2.53125-.414062l-24-8c-4.1875-1.390626-6.453125-5.921876-5.054688-10.117188 1.398438-4.1875 5.898438-6.460938 10.117188-5.054688l24 8c4.1875 1.390626 6.453125 5.921876 5.054688 10.117188-1.117188 3.351562-4.234376 5.46875-7.585938 5.46875zm0 0"/><path d="m184 169.8125c-2.046875 0-4.09375-.78125-5.65625-2.34375l-76-76c-3.125-3.125-3.125-8.1875 0-11.3125s8.1875-3.125 11.3125 0l76 76c3.125 3.125 3.125 8.1875 0 11.3125-1.5625 1.5625-3.609375 2.34375-5.65625 2.34375zm0 0"/></g><path d="m64 83.625c-4.421875 0-8-3.578125-8-8v-19.953125l-17.28125 9.976563c-3.820312 2.195312-8.71875.90625-10.929688-2.929688-.726562-1.257812-1.070312-2.632812-1.070312-3.992188 0-2.765624 1.429688-5.453124 4-6.9375l17.28125-9.976562-17.28125-9.976562c-2.570312-1.484376-4-4.171876-4-6.9375 0-1.359376.34375-2.734376 1.070312-3.992188 2.210938-3.835938 7.109376-5.148438 10.929688-2.929688l17.28125 9.976563v-19.953125c0-4.421875 3.578125-8 8-8s8 3.578125 8 8v19.953125l17.28125-9.976563c3.8125-2.21875 8.710938-.90625 10.929688 2.929688.726562 1.257812 1.070312 2.632812 1.070312 3.992188 0 2.765624-1.429688 5.453124-4 6.9375l-17.28125 9.976562 17.28125 9.976562c2.570312 1.484376 4 4.171876 4 6.9375 0 1.359376-.34375 2.734376-1.070312 3.992188-2.21875 3.835938-7.117188 5.125-10.929688 2.929688l-17.28125-9.976563v19.953125c0 4.421875-3.578125 8-8 8zm0 0" fill="#ff9a9f"/><path d="m404 389.8125c-2.046875 0-4.09375-.78125-5.65625-2.34375l-76-76c-3.125-3.125-3.125-8.1875 0-11.3125s8.1875-3.125 11.3125 0l76 76c3.125 3.125 3.125 8.1875 0 11.3125-1.5625 1.5625-3.609375 2.34375-5.65625 2.34375zm0 0" fill="#ffeaa8"/><path d="m448 467.625c-4.421875 0-8-3.578125-8-8v-19.953125l-17.28125 9.976563c-3.820312 2.203124-8.71875.898437-10.929688-2.929688-.726562-1.257812-1.070312-2.632812-1.070312-3.992188 0-2.765624 1.429688-5.453124 4-6.9375l17.28125-9.976562-17.28125-9.976562c-2.570312-1.484376-4-4.171876-4-6.9375 0-1.359376.34375-2.734376 1.070312-3.992188 2.210938-3.835938 7.109376-5.140625 10.929688-2.929688l17.28125 9.976563v-19.953125c0-4.421875 3.578125-8 8-8s8 3.578125 8 8v19.953125l17.28125-9.976563c3.804688-2.210937 8.710938-.90625 10.929688 2.929688.726562 1.257812 1.070312 2.632812 1.070312 3.992188 0 2.765624-1.429688 5.453124-4 6.9375l-17.28125 9.976562 17.28125 9.976562c2.570312 1.484376 4 4.171876 4 6.9375 0 1.359376-.34375 2.734376-1.070312 3.992188-2.21875 3.828125-7.125 5.132812-10.929688 2.929688l-17.28125-9.976563v19.953125c0 4.421875-3.578125 8-8 8zm0 0" fill="#ff9a9f"/><path d="m144 353.8125c-2.046875 0-4.09375-.78125-5.65625-2.34375-3.125-3.125-3.125-8.1875 0-11.3125l40-40c3.125-3.125 8.1875-3.125 11.3125 0s3.125 8.1875 0 11.3125l-40 40c-1.5625 1.5625-3.609375 2.34375-5.65625 2.34375zm0 0" fill="#ffeaa8"/><path d="m136 369.8125h-16v-16c0-4.421875-3.578125-8-8-8s-8 3.578125-8 8v16h-16c-4.421875 0-8 3.578125-8 8s3.578125 8 8 8h16v16c0 4.421875 3.578125 8 8 8s8-3.578125 8-8v-16h16c4.421875 0 8-3.578125 8-8s-3.578125-8-8-8zm0 0" fill="#ccf49f"/><path d="m328 169.8125c-2.046875 0-4.09375-.78125-5.65625-2.34375-3.125-3.125-3.125-8.1875 0-11.3125l40-40c3.125-3.125 8.1875-3.125 11.3125 0s3.125 8.1875 0 11.3125l-40 40c-1.5625 1.5625-3.609375 2.34375-5.65625 2.34375zm0 0" fill="#ffeaa8"/><path d="m424 81.8125h-16v-16c0-4.421875-3.578125-8-8-8s-8 3.578125-8 8v16h-16c-4.421875 0-8 3.578125-8 8s3.578125 8 8 8h16v16c0 4.421875 3.578125 8 8 8s8-3.578125 8-8v-16h16c4.421875 0 8-3.578125 8-8s-3.578125-8-8-8zm0 0" fill="#ccf49f"/><path d="m256 161.8125c-4.421875 0-8-3.578125-8-8v-56c0-4.421875 3.578125-8 8-8s8 3.578125 8 8v56c0 4.421875-3.578125 8-8 8zm0 0" fill="#ffeaa8"/><path d="m272 49.8125c0 8.835938-7.164062 16-16 16s-16-7.164062-16-16 7.164062-16 16-16 16 7.164062 16 16zm0 0" fill="#ead1ff"/><path d="m256 377.8125c-4.421875 0-8-3.578125-8-8v-56c0-4.421875 3.578125-8 8-8s8 3.578125 8 8v56c0 4.421875-3.578125 8-8 8zm0 0" fill="#ffeaa8"/><path d="m272 417.8125c0 8.835938-7.164062 16-16 16s-16-7.164062-16-16 7.164062-16 16-16 16 7.164062 16 16zm0 0" fill="#ead1ff"/></svg>