<?xml version="1.0" standalone="no"?>
<!DOCTYPE svg PUBLIC "-//W3C//DTD SVG 20010904//EN"
 "http://www.w3.org/TR/2001/REC-SVG-20010904/DTD/svg10.dtd">
<svg version="1.0" xmlns="http://www.w3.org/2000/svg"
 width="512.000000pt" height="512.000000pt" viewBox="0 0 512.000000 512.000000"
 preserveAspectRatio="xMidYMid meet">

<g transform="translate(0.000000,512.000000) scale(0.100000,-0.100000)"
fill="#212F6A" stroke="none">
<path d="M2088 5099 c-63 -33 -78 -76 -78 -226 l0 -128 -149 -48 c-96 -31
-205 -76 -305 -126 l-155 -77 -93 93 c-105 106 -138 122 -210 103 -37 -10 -83
-51 -350 -318 -267 -267 -308 -313 -318 -349 -19 -73 -3 -106 103 -211 l93
-93 -77 -155 c-50 -100 -95 -209 -126 -305 l-48 -149 -128 0 c-152 0 -194 -15
-227 -80 -19 -37 -20 -58 -20 -470 0 -412 1 -433 20 -470 33 -65 75 -80 227
-80 l128 0 48 -149 c31 -96 76 -205 126 -305 l77 -155 -93 -93 c-106 -105
-122 -138 -103 -210 10 -37 51 -83 318 -350 267 -267 313 -308 349 -318 73
-19 106 -3 211 103 l93 93 155 -77 c100 -50 209 -95 305 -126 l149 -48 0 -128
c0 -152 15 -194 80 -227 37 -19 58 -20 470 -20 412 0 433 1 470 20 65 33 80
75 80 227 l0 128 152 49 c99 32 204 75 304 126 l153 77 93 -94 c105 -106 138
-122 211 -103 36 10 82 51 349 318 267 267 308 313 318 350 19 72 3 105 -103
210 l-93 93 77 155 c50 100 95 209 126 305 l48 149 128 0 c152 0 194 15 227
80 19 37 20 58 20 470 0 412 -1 433 -20 470 -33 65 -75 80 -227 80 l-128 0
-48 149 c-31 96 -76 205 -126 305 l-77 155 93 93 c106 105 122 138 103 211
-10 36 -51 82 -318 349 -267 267 -313 308 -349 318 -73 19 -106 3 -211 -103
l-93 -94 -153 77 c-100 51 -205 94 -304 126 l-152 49 0 128 c0 152 -15 194
-80 227 -38 19 -58 20 -472 20 -411 -1 -435 -2 -470 -21z m675 -1004 c694 -92
1240 -638 1332 -1332 41 -304 -5 -585 -140 -869 -226 -475 -672 -800 -1194
-870 -765 -101 -1491 383 -1697 1133 -266 972 474 1944 1486 1952 58 0 154 -6
213 -14z"/>
<path d="M2375 3795 c-184 -28 -362 -99 -521 -205 -101 -68 -256 -223 -324
-324 -251 -375 -289 -837 -101 -1232 61 -127 186 -314 211 -314 4 0 13 19 20
43 51 172 212 381 373 486 37 24 67 46 67 48 0 3 -18 26 -40 51 -120 136 -175
357 -135 547 50 240 260 450 500 500 146 31 285 12 425 -56 169 -83 307 -260
345 -444 40 -190 -15 -411 -135 -547 -22 -25 -40 -48 -40 -51 0 -2 30 -24 67
-48 161 -105 322 -314 373 -486 7 -24 16 -43 20 -43 4 0 23 19 42 43 308 380
374 892 169 1323 -92 192 -223 354 -386 476 -95 71 -291 169 -395 198 -175 48
-371 61 -535 35z"/>
<path d="M2463 3096 c-103 -34 -176 -98 -222 -196 -22 -46 -26 -69 -26 -140 0
-76 4 -93 33 -152 38 -77 92 -130 171 -167 47 -22 70 -26 141 -26 71 0 94 4
141 26 79 37 133 90 171 167 29 59 33 76 33 152 0 71 -4 94 -26 141 -58 124
-169 199 -302 205 -43 3 -89 -2 -114 -10z"/>
<path d="M2420 2094 c-114 -24 -224 -86 -315 -178 -111 -111 -170 -228 -191
-379 l-6 -47 113 -54 c350 -167 729 -167 1078 -1 l113 55 -6 47 c-21 151 -80
268 -191 379 -63 64 -98 90 -165 123 -139 68 -284 87 -430 55z"/>
</g>
</svg>
